<?xml version="1.0" encoding="UTF-8"?>
<svg xmlns="http://www.w3.org/2000/svg" width="40pt" height="40pt" viewBox="0 0 40 40" version="1.1">
    <g id="surface1">
        <path style=" stroke:none;fill-rule:nonzero;fill:rgb(25.882353%,38.823529%,45.098039%);fill-opacity:1;"
              d="M 36.945312 20 C 36.945312 29.300781 29.359375 36.84375 20 36.84375 C 10.640625 36.84375 3.054688 29.300781 3.054688 20 C 3.054688 10.699219 10.640625 3.15625 20 3.15625 C 29.359375 3.15625 36.945312 10.699219 36.945312 20 Z M 36.945312 20 "/>
        <path style=" stroke:none;fill-rule:nonzero;fill:rgb(51.764706%,82.745098%,85.882353%);fill-opacity:1;"
              d="M 27.730469 14.574219 C 27.730469 14.261719 27.816406 13.96875 27.960938 13.71875 L 21.492188 10.003906 C 21.195312 10.515625 20.636719 10.863281 20 10.863281 C 19.363281 10.863281 18.804688 10.515625 18.507812 10.003906 L 12.039062 13.71875 C 12.183594 13.96875 12.269531 14.261719 12.269531 14.574219 C 12.269531 15.519531 11.496094 16.289062 10.542969 16.289062 L 10.542969 23.710938 C 11.496094 23.710938 12.269531 24.480469 12.269531 25.425781 C 12.269531 25.738281 12.183594 26.03125 12.039062 26.28125 L 18.507812 29.996094 C 18.804688 29.484375 19.363281 29.136719 20 29.136719 C 20.636719 29.136719 21.195312 29.484375 21.492188 29.996094 L 27.960938 26.28125 C 27.816406 26.03125 27.730469 25.738281 27.730469 25.425781 C 27.730469 24.480469 28.503906 23.710938 29.457031 23.710938 L 29.457031 16.289062 C 28.503906 16.289062 27.730469 15.519531 27.730469 14.574219 Z M 27.730469 14.574219 "/>
        <path style=" stroke:none;fill-rule:nonzero;fill:rgb(0%,81.568627%,88.627451%);fill-opacity:1;"
              d="M 12.027344 15.421875 L 20 10.847656 L 27.972656 15.421875 L 27.972656 24.578125 L 20 29.152344 L 12.027344 24.578125 Z M 12.027344 15.421875 "/>
        <path style=" stroke:none;fill-rule:nonzero;fill:rgb(99.607843%,82.745098%,13.333333%);fill-opacity:1;"
              d="M 21.726562 20 C 21.726562 20.945312 20.957031 21.714844 20.003906 21.714844 C 19.050781 21.714844 18.277344 20.945312 18.277344 20 C 18.277344 19.054688 19.050781 18.285156 20.003906 18.285156 C 20.957031 18.285156 21.726562 19.054688 21.726562 20 Z M 21.726562 20 "/>
        <path style=" stroke:none;fill-rule:nonzero;fill:rgb(99.607843%,82.745098%,13.333333%);fill-opacity:1;"
              d="M 21.722656 30.851562 C 21.722656 31.800781 20.953125 32.566406 20 32.566406 C 19.046875 32.566406 18.277344 31.800781 18.277344 30.851562 C 18.277344 29.90625 19.046875 29.136719 20 29.136719 C 20.953125 29.136719 21.722656 29.90625 21.722656 30.851562 Z M 20 7.433594 C 19.046875 7.433594 18.277344 8.199219 18.277344 9.148438 C 18.277344 10.09375 19.046875 10.863281 20 10.863281 C 20.953125 10.863281 21.722656 10.09375 21.722656 9.148438 C 21.722656 8.199219 20.953125 7.433594 20 7.433594 Z M 10.542969 12.859375 C 9.59375 12.859375 8.820312 13.628906 8.820312 14.574219 C 8.820312 15.519531 9.59375 16.289062 10.542969 16.289062 C 11.496094 16.289062 12.269531 15.519531 12.269531 14.574219 C 12.269531 13.628906 11.496094 12.859375 10.542969 12.859375 Z M 29.457031 12.859375 C 28.503906 12.859375 27.730469 13.628906 27.730469 14.574219 C 27.730469 15.519531 28.503906 16.289062 29.457031 16.289062 C 30.40625 16.289062 31.179688 15.519531 31.179688 14.574219 C 31.179688 13.628906 30.40625 12.859375 29.457031 12.859375 Z M 10.542969 23.710938 C 9.59375 23.710938 8.820312 24.480469 8.820312 25.425781 C 8.820312 26.371094 9.59375 27.140625 10.542969 27.140625 C 11.496094 27.140625 12.269531 26.371094 12.269531 25.425781 C 12.269531 24.480469 11.496094 23.710938 10.542969 23.710938 Z M 29.457031 23.710938 C 28.503906 23.710938 27.730469 24.480469 27.730469 25.425781 C 27.730469 26.371094 28.503906 27.140625 29.457031 27.140625 C 30.40625 27.140625 31.179688 26.371094 31.179688 25.425781 C 31.179688 24.480469 30.40625 23.710938 29.457031 23.710938 Z M 29.457031 23.710938 "/>
        <path style=" stroke:none;fill-rule:nonzero;fill:rgb(0.392157%,0.392157%,0.392157%);fill-opacity:1;"
              d="M 22.261719 20 C 22.261719 18.945312 21.527344 18.058594 20.539062 17.820312 L 20.539062 17.222656 L 19.46875 17.222656 L 19.46875 17.820312 C 18.480469 18.058594 17.742188 18.945312 17.742188 20 C 17.742188 20.21875 17.777344 20.429688 17.835938 20.628906 L 17.316406 20.925781 L 17.851562 21.847656 L 18.371094 21.550781 C 18.78125 21.976562 19.359375 22.246094 20.003906 22.246094 C 20.644531 22.246094 21.222656 21.980469 21.632812 21.550781 L 22.152344 21.851562 L 22.6875 20.929688 L 22.171875 20.632812 C 22.230469 20.429688 22.261719 20.21875 22.261719 20 Z M 20.003906 21.183594 C 19.347656 21.183594 18.8125 20.652344 18.8125 20 C 18.8125 19.347656 19.347656 18.816406 20.003906 18.816406 C 20.660156 18.816406 21.191406 19.347656 21.191406 20 C 21.191406 20.652344 20.660156 21.183594 20.003906 21.183594 Z M 20.003906 21.183594 "/>
        <path style=" stroke:none;fill-rule:nonzero;fill:rgb(0.392157%,0.392157%,0.392157%);fill-opacity:1;"
              d="M 31.125 26.9375 L 31.65625 27.238281 L 32.1875 26.316406 L 31.636719 26.003906 C 31.6875 25.820312 31.714844 25.625 31.714844 25.425781 C 31.714844 24.371094 30.980469 23.484375 29.992188 23.246094 L 29.992188 16.753906 C 30.980469 16.515625 31.714844 15.628906 31.714844 14.574219 C 31.714844 14.335938 31.675781 14.109375 31.609375 13.894531 L 32.136719 13.585938 L 31.597656 12.667969 L 31.050781 12.984375 C 30.640625 12.578125 30.078125 12.328125 29.457031 12.328125 C 28.8125 12.328125 28.234375 12.59375 27.824219 13.023438 L 22.167969 9.777344 C 22.226562 9.578125 22.257812 9.367188 22.257812 9.148438 C 22.257812 8.09375 21.523438 7.207031 20.535156 6.964844 L 20.535156 6.347656 L 19.464844 6.347656 L 19.464844 6.964844 C 18.476562 7.207031 17.742188 8.09375 17.742188 9.148438 C 17.742188 9.367188 17.773438 9.578125 17.832031 9.777344 L 12.175781 13.023438 C 11.765625 12.59375 11.183594 12.328125 10.542969 12.328125 C 9.882812 12.328125 9.289062 12.609375 8.875 13.0625 L 7.433594 12.242188 L 6.902344 13.164062 L 8.363281 13.996094 C 8.3125 14.179688 8.285156 14.375 8.285156 14.574219 C 8.285156 15.628906 9.019531 16.515625 10.007812 16.753906 L 10.007812 23.246094 C 9.019531 23.484375 8.285156 24.371094 8.285156 25.425781 C 8.285156 25.664062 8.324219 25.890625 8.390625 26.105469 L 6.957031 26.9375 L 7.496094 27.855469 L 8.949219 27.015625 C 9.359375 27.421875 9.921875 27.671875 10.542969 27.671875 C 11.1875 27.671875 11.765625 27.40625 12.175781 26.976562 L 17.832031 30.222656 C 17.773438 30.421875 17.742188 30.632812 17.742188 30.851562 C 17.742188 31.90625 18.476562 32.792969 19.464844 33.035156 L 19.464844 34.695312 L 20.535156 34.695312 L 20.535156 33.035156 C 21.523438 32.792969 22.257812 31.90625 22.257812 30.851562 C 22.257812 30.632812 22.226562 30.421875 22.167969 30.222656 L 27.824219 26.976562 C 28.234375 27.40625 28.816406 27.671875 29.457031 27.671875 C 30.117188 27.671875 30.710938 27.386719 31.125 26.9375 Z M 30.644531 14.574219 C 30.644531 15.226562 30.109375 15.753906 29.457031 15.753906 C 28.800781 15.753906 28.265625 15.226562 28.265625 14.574219 C 28.265625 14.539062 28.269531 14.503906 28.273438 14.46875 C 28.273438 14.457031 28.273438 14.449219 28.273438 14.441406 C 28.277344 14.40625 28.285156 14.375 28.289062 14.339844 C 28.292969 14.332031 28.292969 14.328125 28.292969 14.320312 C 28.300781 14.292969 28.308594 14.265625 28.316406 14.238281 C 28.320312 14.230469 28.320312 14.21875 28.324219 14.210938 C 28.335938 14.179688 28.347656 14.148438 28.359375 14.117188 C 28.359375 14.113281 28.363281 14.105469 28.367188 14.101562 C 28.378906 14.074219 28.390625 14.050781 28.402344 14.023438 C 28.40625 14.015625 28.410156 14.007812 28.417969 14 C 28.621094 13.636719 29.007812 13.390625 29.457031 13.390625 C 30.109375 13.390625 30.644531 13.921875 30.644531 14.574219 Z M 20 7.964844 C 20.65625 7.964844 21.1875 8.496094 21.1875 9.148438 C 21.1875 9.390625 21.113281 9.617188 20.988281 9.808594 C 20.984375 9.808594 20.984375 9.808594 20.980469 9.8125 C 20.964844 9.839844 20.945312 9.863281 20.925781 9.886719 C 20.917969 9.894531 20.914062 9.902344 20.90625 9.910156 C 20.890625 9.929688 20.871094 9.953125 20.847656 9.972656 C 20.84375 9.980469 20.839844 9.984375 20.835938 9.988281 C 20.8125 10.007812 20.792969 10.027344 20.769531 10.046875 C 20.757812 10.054688 20.75 10.0625 20.738281 10.074219 C 20.722656 10.085938 20.707031 10.097656 20.691406 10.109375 C 20.671875 10.121094 20.652344 10.132812 20.632812 10.144531 C 20.617188 10.15625 20.601562 10.164062 20.585938 10.175781 C 20.570312 10.183594 20.554688 10.191406 20.539062 10.199219 C 20.527344 10.207031 20.511719 10.210938 20.5 10.21875 C 20.476562 10.230469 20.449219 10.242188 20.425781 10.25 C 20.410156 10.257812 20.390625 10.261719 20.375 10.269531 C 20.359375 10.273438 20.34375 10.277344 20.328125 10.28125 C 20.308594 10.289062 20.285156 10.292969 20.265625 10.296875 C 20.253906 10.300781 20.238281 10.304688 20.226562 10.308594 C 20.195312 10.3125 20.167969 10.316406 20.136719 10.320312 C 20.125 10.324219 20.117188 10.324219 20.105469 10.324219 C 20.070312 10.328125 20.035156 10.328125 20 10.328125 C 19.964844 10.328125 19.929688 10.328125 19.894531 10.324219 C 19.882812 10.324219 19.875 10.320312 19.863281 10.320312 C 19.832031 10.316406 19.800781 10.3125 19.773438 10.308594 C 19.757812 10.304688 19.746094 10.300781 19.734375 10.296875 C 19.714844 10.292969 19.691406 10.289062 19.671875 10.28125 C 19.65625 10.277344 19.640625 10.273438 19.625 10.269531 C 19.609375 10.261719 19.589844 10.257812 19.574219 10.25 C 19.550781 10.238281 19.523438 10.230469 19.5 10.21875 C 19.488281 10.210938 19.472656 10.207031 19.460938 10.199219 C 19.445312 10.191406 19.429688 10.183594 19.414062 10.175781 C 19.398438 10.164062 19.378906 10.15625 19.363281 10.144531 C 19.34375 10.132812 19.328125 10.121094 19.308594 10.109375 C 19.292969 10.097656 19.277344 10.085938 19.261719 10.074219 C 19.25 10.0625 19.242188 10.054688 19.230469 10.046875 C 19.207031 10.027344 19.183594 10.007812 19.164062 9.988281 C 19.160156 9.984375 19.15625 9.980469 19.152344 9.972656 C 19.132812 9.953125 19.109375 9.929688 19.09375 9.910156 C 19.085938 9.902344 19.082031 9.894531 19.074219 9.886719 C 19.054688 9.863281 19.035156 9.839844 19.015625 9.8125 C 19.015625 9.808594 19.015625 9.808594 19.011719 9.808594 C 18.886719 9.617188 18.8125 9.390625 18.8125 9.148438 C 18.8125 8.496094 19.34375 7.964844 20 7.964844 Z M 9.355469 14.574219 C 9.355469 13.921875 9.890625 13.390625 10.542969 13.390625 C 10.992188 13.390625 11.378906 13.636719 11.582031 14 C 11.589844 14.007812 11.59375 14.015625 11.597656 14.023438 C 11.609375 14.050781 11.621094 14.074219 11.632812 14.101562 C 11.636719 14.105469 11.640625 14.113281 11.640625 14.117188 C 11.652344 14.148438 11.664062 14.179688 11.675781 14.210938 C 11.679688 14.21875 11.679688 14.230469 11.683594 14.238281 C 11.691406 14.265625 11.699219 14.292969 11.707031 14.320312 C 11.707031 14.328125 11.707031 14.332031 11.710938 14.339844 C 11.714844 14.375 11.722656 14.40625 11.726562 14.441406 C 11.726562 14.449219 11.726562 14.457031 11.726562 14.46875 C 11.730469 14.503906 11.734375 14.539062 11.734375 14.574219 C 11.734375 15.226562 11.199219 15.753906 10.542969 15.753906 C 9.890625 15.753906 9.355469 15.226562 9.355469 14.574219 Z M 9.355469 25.425781 C 9.355469 24.773438 9.890625 24.246094 10.542969 24.246094 C 11.199219 24.246094 11.734375 24.773438 11.734375 25.425781 C 11.734375 25.460938 11.730469 25.496094 11.726562 25.53125 C 11.726562 25.542969 11.726562 25.550781 11.726562 25.558594 C 11.722656 25.59375 11.714844 25.625 11.710938 25.660156 C 11.707031 25.667969 11.707031 25.671875 11.707031 25.679688 C 11.699219 25.707031 11.691406 25.734375 11.683594 25.761719 C 11.679688 25.769531 11.679688 25.78125 11.675781 25.789062 C 11.664062 25.820312 11.652344 25.851562 11.640625 25.882812 C 11.640625 25.886719 11.636719 25.894531 11.632812 25.898438 C 11.621094 25.925781 11.609375 25.949219 11.597656 25.976562 C 11.59375 25.984375 11.589844 25.992188 11.582031 26 C 11.378906 26.363281 10.992188 26.609375 10.542969 26.609375 C 9.890625 26.609375 9.355469 26.078125 9.355469 25.425781 Z M 20 32.035156 C 19.34375 32.035156 18.8125 31.503906 18.8125 30.851562 C 18.8125 30.609375 18.886719 30.382812 19.011719 30.191406 C 19.015625 30.191406 19.015625 30.191406 19.015625 30.1875 C 19.035156 30.160156 19.054688 30.136719 19.074219 30.113281 C 19.082031 30.105469 19.085938 30.097656 19.09375 30.089844 C 19.109375 30.070312 19.132812 30.046875 19.152344 30.023438 C 19.15625 30.019531 19.160156 30.015625 19.164062 30.011719 C 19.183594 29.992188 19.207031 29.972656 19.230469 29.953125 C 19.242188 29.945312 19.25 29.9375 19.261719 29.925781 C 19.277344 29.914062 19.292969 29.902344 19.308594 29.890625 C 19.328125 29.878906 19.34375 29.867188 19.363281 29.855469 C 19.378906 29.84375 19.398438 29.835938 19.414062 29.824219 C 19.429688 29.816406 19.445312 29.808594 19.460938 29.800781 C 19.472656 29.792969 19.488281 29.789062 19.5 29.78125 C 19.523438 29.769531 19.550781 29.757812 19.574219 29.75 C 19.589844 29.742188 19.609375 29.738281 19.625 29.730469 C 19.640625 29.726562 19.65625 29.722656 19.671875 29.71875 C 19.691406 29.710938 19.714844 29.707031 19.734375 29.703125 C 19.746094 29.699219 19.757812 29.695312 19.773438 29.691406 C 19.800781 29.6875 19.832031 29.683594 19.863281 29.679688 C 19.875 29.675781 19.882812 29.675781 19.894531 29.675781 C 19.929688 29.671875 19.964844 29.671875 20 29.671875 C 20.035156 29.671875 20.070312 29.671875 20.105469 29.675781 C 20.117188 29.675781 20.125 29.679688 20.136719 29.679688 C 20.167969 29.683594 20.195312 29.6875 20.226562 29.691406 C 20.238281 29.695312 20.253906 29.699219 20.265625 29.703125 C 20.285156 29.707031 20.308594 29.710938 20.328125 29.71875 C 20.34375 29.722656 20.359375 29.726562 20.375 29.730469 C 20.390625 29.738281 20.410156 29.742188 20.425781 29.75 C 20.449219 29.757812 20.476562 29.769531 20.5 29.78125 C 20.511719 29.789062 20.527344 29.792969 20.539062 29.800781 C 20.554688 29.808594 20.570312 29.816406 20.585938 29.824219 C 20.601562 29.835938 20.617188 29.84375 20.636719 29.855469 C 20.652344 29.867188 20.671875 29.878906 20.691406 29.890625 C 20.707031 29.902344 20.722656 29.914062 20.738281 29.925781 C 20.75 29.9375 20.757812 29.945312 20.769531 29.953125 C 20.792969 29.972656 20.8125 29.992188 20.835938 30.011719 C 20.839844 30.015625 20.84375 30.023438 20.847656 30.027344 C 20.871094 30.046875 20.890625 30.070312 20.90625 30.089844 C 20.914062 30.097656 20.917969 30.105469 20.925781 30.113281 C 20.945312 30.136719 20.964844 30.160156 20.980469 30.1875 C 20.984375 30.1875 20.984375 30.191406 20.988281 30.191406 C 21.113281 30.382812 21.1875 30.609375 21.1875 30.851562 C 21.1875 31.503906 20.65625 32.035156 20 32.035156 Z M 27.289062 26.054688 L 21.632812 29.300781 C 21.625 29.292969 21.617188 29.289062 21.613281 29.28125 C 21.601562 29.269531 21.585938 29.257812 21.574219 29.242188 C 21.5625 29.230469 21.550781 29.21875 21.535156 29.207031 C 21.519531 29.191406 21.503906 29.175781 21.484375 29.160156 C 21.476562 29.152344 21.464844 29.144531 21.457031 29.136719 C 21.433594 29.117188 21.410156 29.101562 21.386719 29.082031 C 21.382812 29.078125 21.378906 29.074219 21.375 29.070312 C 20.992188 28.78125 20.515625 28.605469 20 28.605469 C 19.484375 28.605469 19.007812 28.78125 18.625 29.070312 C 18.621094 29.074219 18.617188 29.078125 18.613281 29.082031 C 18.589844 29.101562 18.566406 29.117188 18.542969 29.136719 C 18.535156 29.144531 18.523438 29.152344 18.515625 29.164062 C 18.496094 29.175781 18.480469 29.191406 18.464844 29.207031 C 18.449219 29.21875 18.4375 29.230469 18.425781 29.246094 C 18.414062 29.257812 18.402344 29.269531 18.386719 29.28125 C 18.382812 29.289062 18.375 29.292969 18.367188 29.300781 L 12.714844 26.054688 C 12.714844 26.054688 12.714844 26.050781 12.714844 26.046875 C 12.730469 26 12.742188 25.953125 12.75 25.90625 C 12.75 25.90625 12.753906 25.902344 12.753906 25.898438 C 12.765625 25.851562 12.773438 25.800781 12.78125 25.75 C 12.78125 25.746094 12.78125 25.738281 12.78125 25.734375 C 12.789062 25.691406 12.792969 25.648438 12.796875 25.605469 C 12.796875 25.59375 12.796875 25.582031 12.796875 25.570312 C 12.800781 25.523438 12.804688 25.476562 12.804688 25.425781 C 12.804688 25.390625 12.804688 25.355469 12.800781 25.320312 C 12.800781 25.308594 12.800781 25.296875 12.796875 25.285156 C 12.796875 25.261719 12.796875 25.234375 12.792969 25.210938 C 12.792969 25.199219 12.789062 25.183594 12.789062 25.171875 C 12.785156 25.148438 12.785156 25.128906 12.78125 25.105469 C 12.777344 25.09375 12.777344 25.078125 12.773438 25.066406 C 12.769531 25.042969 12.765625 25.019531 12.761719 25 C 12.761719 24.988281 12.757812 24.972656 12.753906 24.960938 C 12.75 24.9375 12.742188 24.914062 12.738281 24.890625 C 12.734375 24.878906 12.734375 24.871094 12.730469 24.859375 C 12.726562 24.839844 12.71875 24.816406 12.710938 24.796875 L 13.230469 24.5 L 12.695312 23.578125 L 12.175781 23.875 C 12.171875 23.871094 12.164062 23.863281 12.160156 23.859375 C 12.152344 23.851562 12.144531 23.839844 12.132812 23.832031 C 12.117188 23.8125 12.097656 23.796875 12.078125 23.777344 C 12.070312 23.773438 12.066406 23.769531 12.0625 23.761719 C 12.035156 23.742188 12.011719 23.71875 11.984375 23.699219 C 11.976562 23.691406 11.96875 23.683594 11.960938 23.679688 C 11.941406 23.664062 11.925781 23.648438 11.90625 23.636719 C 11.894531 23.628906 11.882812 23.621094 11.875 23.613281 C 11.855469 23.601562 11.839844 23.585938 11.824219 23.574219 C 11.8125 23.566406 11.800781 23.5625 11.789062 23.554688 C 11.769531 23.542969 11.753906 23.53125 11.734375 23.519531 C 11.726562 23.511719 11.714844 23.503906 11.703125 23.5 C 11.683594 23.488281 11.664062 23.476562 11.644531 23.464844 C 11.632812 23.460938 11.625 23.453125 11.613281 23.449219 C 11.585938 23.433594 11.558594 23.417969 11.53125 23.40625 C 11.527344 23.40625 11.523438 23.402344 11.523438 23.402344 C 11.492188 23.386719 11.460938 23.375 11.429688 23.359375 C 11.417969 23.355469 11.410156 23.351562 11.398438 23.347656 C 11.375 23.339844 11.355469 23.332031 11.335938 23.324219 C 11.320312 23.316406 11.308594 23.3125 11.296875 23.308594 C 11.277344 23.300781 11.257812 23.296875 11.234375 23.289062 C 11.222656 23.285156 11.210938 23.28125 11.195312 23.277344 C 11.175781 23.269531 11.15625 23.265625 11.132812 23.257812 C 11.121094 23.253906 11.109375 23.25 11.09375 23.25 C 11.089844 23.246094 11.085938 23.246094 11.078125 23.246094 L 11.078125 16.757812 C 11.085938 16.753906 11.089844 16.753906 11.09375 16.75 C 11.109375 16.75 11.121094 16.746094 11.132812 16.742188 C 11.15625 16.734375 11.175781 16.730469 11.195312 16.722656 C 11.210938 16.71875 11.222656 16.714844 11.234375 16.710938 C 11.257812 16.707031 11.277344 16.699219 11.296875 16.691406 C 11.308594 16.6875 11.320312 16.683594 11.335938 16.675781 C 11.355469 16.667969 11.378906 16.660156 11.398438 16.652344 C 11.410156 16.648438 11.417969 16.644531 11.429688 16.640625 C 11.460938 16.625 11.492188 16.613281 11.523438 16.597656 C 11.523438 16.597656 11.527344 16.59375 11.53125 16.59375 C 11.558594 16.582031 11.585938 16.566406 11.613281 16.550781 C 11.625 16.546875 11.632812 16.539062 11.644531 16.535156 C 11.664062 16.523438 11.683594 16.511719 11.703125 16.5 C 11.714844 16.496094 11.726562 16.488281 11.734375 16.480469 C 11.753906 16.46875 11.769531 16.457031 11.789062 16.445312 C 11.800781 16.4375 11.8125 16.433594 11.824219 16.425781 C 11.839844 16.414062 11.855469 16.398438 11.875 16.386719 C 11.882812 16.378906 11.894531 16.371094 11.90625 16.363281 C 11.925781 16.351562 11.941406 16.335938 11.960938 16.320312 C 11.96875 16.316406 11.976562 16.308594 11.984375 16.300781 C 12.011719 16.28125 12.035156 16.257812 12.0625 16.238281 C 12.066406 16.234375 12.070312 16.226562 12.078125 16.222656 C 12.097656 16.203125 12.117188 16.1875 12.132812 16.167969 C 12.144531 16.160156 12.152344 16.148438 12.160156 16.140625 C 12.175781 16.125 12.191406 16.109375 12.203125 16.09375 C 12.214844 16.085938 12.222656 16.074219 12.230469 16.066406 C 12.246094 16.050781 12.257812 16.035156 12.273438 16.019531 C 12.28125 16.007812 12.289062 15.996094 12.296875 15.988281 C 12.3125 15.972656 12.324219 15.953125 12.335938 15.9375 C 12.34375 15.925781 12.351562 15.917969 12.359375 15.90625 C 12.375 15.886719 12.390625 15.867188 12.40625 15.847656 C 12.410156 15.839844 12.414062 15.832031 12.417969 15.824219 C 12.4375 15.796875 12.457031 15.769531 12.472656 15.742188 C 12.480469 15.734375 12.484375 15.726562 12.488281 15.71875 C 12.5 15.695312 12.511719 15.675781 12.523438 15.652344 C 12.53125 15.640625 12.535156 15.632812 12.542969 15.621094 C 12.550781 15.601562 12.5625 15.582031 12.574219 15.5625 C 12.578125 15.550781 12.585938 15.539062 12.589844 15.527344 C 12.597656 15.507812 12.609375 15.488281 12.617188 15.46875 C 12.621094 15.457031 12.625 15.445312 12.632812 15.433594 C 12.640625 15.410156 12.648438 15.390625 12.65625 15.371094 C 12.660156 15.359375 12.664062 15.347656 12.667969 15.335938 C 12.679688 15.308594 12.6875 15.28125 12.695312 15.253906 C 12.699219 15.25 12.699219 15.246094 12.703125 15.238281 C 12.710938 15.207031 12.722656 15.171875 12.730469 15.140625 C 12.734375 15.128906 12.734375 15.121094 12.738281 15.109375 C 12.742188 15.085938 12.75 15.0625 12.753906 15.039062 C 12.757812 15.027344 12.761719 15.011719 12.761719 15 C 12.765625 14.976562 12.769531 14.957031 12.773438 14.933594 C 12.777344 14.921875 12.777344 14.90625 12.78125 14.894531 C 12.785156 14.871094 12.785156 14.851562 12.789062 14.828125 C 12.789062 14.816406 12.792969 14.800781 12.792969 14.789062 C 12.796875 14.765625 12.796875 14.738281 12.796875 14.714844 C 12.800781 14.703125 12.800781 14.691406 12.800781 14.679688 C 12.800781 14.644531 12.804688 14.609375 12.804688 14.574219 C 12.804688 14.523438 12.800781 14.476562 12.796875 14.429688 C 12.796875 14.417969 12.796875 14.40625 12.796875 14.394531 C 12.792969 14.351562 12.789062 14.308594 12.78125 14.265625 C 12.78125 14.261719 12.78125 14.253906 12.78125 14.25 C 12.773438 14.199219 12.761719 14.148438 12.753906 14.101562 C 12.753906 14.097656 12.75 14.09375 12.75 14.089844 C 12.742188 14.046875 12.730469 14 12.714844 13.953125 C 12.714844 13.949219 12.714844 13.945312 12.714844 13.941406 L 18.367188 10.699219 C 18.375 10.707031 18.382812 10.710938 18.386719 10.71875 C 18.402344 10.730469 18.414062 10.742188 18.425781 10.753906 C 18.4375 10.769531 18.449219 10.78125 18.464844 10.792969 C 18.480469 10.808594 18.496094 10.824219 18.515625 10.835938 C 18.523438 10.84375 18.535156 10.855469 18.542969 10.863281 C 18.566406 10.882812 18.589844 10.898438 18.613281 10.917969 C 18.617188 10.921875 18.621094 10.925781 18.625 10.929688 C 18.871094 11.117188 19.15625 11.253906 19.464844 11.328125 L 19.464844 11.925781 L 20.535156 11.925781 L 20.535156 11.328125 C 20.84375 11.253906 21.128906 11.113281 21.375 10.925781 C 21.378906 10.925781 21.382812 10.921875 21.386719 10.917969 C 21.410156 10.898438 21.433594 10.882812 21.457031 10.863281 C 21.464844 10.855469 21.476562 10.847656 21.484375 10.839844 C 21.503906 10.824219 21.519531 10.808594 21.535156 10.792969 C 21.550781 10.78125 21.5625 10.769531 21.574219 10.757812 C 21.585938 10.742188 21.601562 10.730469 21.613281 10.71875 C 21.617188 10.710938 21.625 10.707031 21.632812 10.699219 L 27.285156 13.941406 C 27.285156 13.945312 27.285156 13.949219 27.285156 13.953125 C 27.269531 14 27.257812 14.042969 27.25 14.089844 C 27.25 14.09375 27.246094 14.097656 27.246094 14.101562 C 27.234375 14.148438 27.226562 14.199219 27.21875 14.25 C 27.21875 14.253906 27.21875 14.261719 27.21875 14.265625 C 27.210938 14.308594 27.207031 14.351562 27.203125 14.394531 C 27.203125 14.40625 27.203125 14.417969 27.203125 14.429688 C 27.199219 14.476562 27.195312 14.523438 27.195312 14.574219 C 27.195312 14.609375 27.195312 14.644531 27.199219 14.679688 C 27.199219 14.691406 27.199219 14.703125 27.199219 14.714844 C 27.203125 14.738281 27.203125 14.765625 27.207031 14.789062 C 27.207031 14.800781 27.210938 14.816406 27.210938 14.828125 C 27.214844 14.851562 27.214844 14.871094 27.21875 14.894531 C 27.222656 14.90625 27.222656 14.921875 27.226562 14.933594 C 27.230469 14.957031 27.234375 14.976562 27.238281 15 C 27.238281 15.011719 27.242188 15.027344 27.246094 15.039062 C 27.25 15.0625 27.257812 15.085938 27.261719 15.109375 C 27.265625 15.121094 27.265625 15.128906 27.269531 15.140625 C 27.277344 15.171875 27.289062 15.207031 27.296875 15.238281 C 27.300781 15.246094 27.300781 15.25 27.304688 15.253906 C 27.3125 15.28125 27.320312 15.308594 27.332031 15.335938 C 27.335938 15.347656 27.339844 15.359375 27.34375 15.371094 C 27.351562 15.390625 27.359375 15.410156 27.367188 15.433594 C 27.375 15.445312 27.378906 15.457031 27.382812 15.46875 C 27.390625 15.488281 27.402344 15.507812 27.410156 15.527344 C 27.417969 15.539062 27.421875 15.550781 27.425781 15.5625 C 27.4375 15.582031 27.449219 15.601562 27.457031 15.621094 C 27.464844 15.632812 27.46875 15.640625 27.476562 15.652344 C 27.488281 15.675781 27.5 15.695312 27.511719 15.71875 C 27.515625 15.726562 27.523438 15.734375 27.527344 15.742188 C 27.542969 15.769531 27.5625 15.796875 27.582031 15.824219 C 27.585938 15.832031 27.589844 15.839844 27.59375 15.847656 C 27.609375 15.867188 27.625 15.886719 27.640625 15.90625 C 27.648438 15.917969 27.65625 15.925781 27.660156 15.9375 C 27.675781 15.953125 27.6875 15.972656 27.703125 15.988281 C 27.710938 16 27.71875 16.007812 27.726562 16.019531 C 27.742188 16.035156 27.753906 16.050781 27.769531 16.066406 C 27.777344 16.074219 27.785156 16.085938 27.796875 16.09375 C 27.808594 16.109375 27.824219 16.125 27.839844 16.140625 C 27.847656 16.152344 27.855469 16.160156 27.867188 16.167969 C 27.882812 16.1875 27.90625 16.203125 27.925781 16.222656 C 27.929688 16.226562 27.933594 16.234375 27.9375 16.238281 C 27.964844 16.257812 27.988281 16.28125 28.015625 16.300781 C 28.023438 16.308594 28.03125 16.316406 28.039062 16.320312 C 28.058594 16.335938 28.074219 16.351562 28.09375 16.363281 C 28.105469 16.371094 28.117188 16.378906 28.125 16.386719 C 28.144531 16.398438 28.160156 16.414062 28.175781 16.425781 C 28.1875 16.433594 28.199219 16.4375 28.210938 16.445312 C 28.230469 16.457031 28.246094 16.46875 28.265625 16.480469 C 28.273438 16.488281 28.285156 16.496094 28.296875 16.5 C 28.316406 16.511719 28.335938 16.523438 28.355469 16.535156 C 28.367188 16.539062 28.375 16.546875 28.386719 16.550781 C 28.414062 16.566406 28.441406 16.582031 28.46875 16.59375 C 28.472656 16.59375 28.476562 16.597656 28.476562 16.597656 C 28.507812 16.613281 28.539062 16.625 28.570312 16.640625 C 28.582031 16.644531 28.589844 16.648438 28.601562 16.652344 C 28.625 16.660156 28.644531 16.667969 28.664062 16.675781 C 28.679688 16.683594 28.691406 16.6875 28.703125 16.691406 C 28.722656 16.699219 28.742188 16.703125 28.765625 16.710938 C 28.777344 16.714844 28.789062 16.71875 28.804688 16.722656 C 28.824219 16.730469 28.84375 16.734375 28.867188 16.742188 C 28.878906 16.746094 28.890625 16.75 28.90625 16.75 C 28.910156 16.753906 28.914062 16.753906 28.921875 16.753906 L 28.921875 23.242188 C 28.914062 23.246094 28.910156 23.246094 28.90625 23.25 C 28.890625 23.25 28.878906 23.253906 28.867188 23.257812 C 28.84375 23.265625 28.824219 23.269531 28.804688 23.277344 C 28.789062 23.28125 28.777344 23.285156 28.765625 23.289062 C 28.742188 23.292969 28.722656 23.300781 28.703125 23.308594 C 28.691406 23.3125 28.679688 23.316406 28.664062 23.324219 C 28.644531 23.332031 28.625 23.339844 28.601562 23.347656 C 28.589844 23.351562 28.582031 23.355469 28.570312 23.359375 C 28.539062 23.375 28.507812 23.386719 28.476562 23.402344 C 28.476562 23.402344 28.472656 23.40625 28.46875 23.40625 C 28.441406 23.417969 28.414062 23.433594 28.386719 23.449219 C 28.375 23.453125 28.367188 23.460938 28.355469 23.464844 C 28.335938 23.476562 28.316406 23.488281 28.296875 23.5 C 28.285156 23.503906 28.273438 23.511719 28.265625 23.519531 C 28.246094 23.53125 28.230469 23.542969 28.210938 23.554688 C 28.199219 23.5625 28.1875 23.566406 28.175781 23.574219 C 28.160156 23.585938 28.144531 23.601562 28.125 23.613281 C 28.117188 23.621094 28.105469 23.628906 28.09375 23.636719 C 28.074219 23.648438 28.058594 23.664062 28.039062 23.679688 C 28.03125 23.683594 28.023438 23.691406 28.015625 23.699219 C 27.988281 23.71875 27.964844 23.742188 27.9375 23.761719 C 27.933594 23.765625 27.929688 23.773438 27.925781 23.777344 C 27.90625 23.796875 27.886719 23.8125 27.867188 23.832031 C 27.855469 23.839844 27.847656 23.847656 27.839844 23.859375 C 27.835938 23.863281 27.828125 23.871094 27.824219 23.875 L 27.304688 23.578125 L 26.769531 24.496094 L 27.289062 24.796875 C 27.28125 24.816406 27.273438 24.839844 27.269531 24.859375 C 27.265625 24.871094 27.265625 24.878906 27.261719 24.890625 C 27.257812 24.914062 27.25 24.9375 27.246094 24.960938 C 27.242188 24.972656 27.238281 24.988281 27.238281 25 C 27.234375 25.019531 27.230469 25.042969 27.226562 25.066406 C 27.222656 25.078125 27.222656 25.09375 27.21875 25.105469 C 27.214844 25.128906 27.214844 25.148438 27.210938 25.171875 C 27.210938 25.183594 27.207031 25.199219 27.207031 25.210938 C 27.203125 25.234375 27.203125 25.257812 27.199219 25.285156 C 27.199219 25.296875 27.199219 25.308594 27.199219 25.320312 C 27.195312 25.355469 27.195312 25.390625 27.195312 25.425781 C 27.195312 25.476562 27.199219 25.523438 27.203125 25.570312 C 27.203125 25.582031 27.203125 25.59375 27.203125 25.605469 C 27.207031 25.648438 27.210938 25.691406 27.21875 25.734375 C 27.21875 25.738281 27.21875 25.742188 27.21875 25.75 C 27.226562 25.800781 27.234375 25.851562 27.246094 25.898438 C 27.246094 25.902344 27.25 25.90625 27.25 25.90625 C 27.257812 25.953125 27.269531 26 27.285156 26.046875 C 27.285156 26.050781 27.285156 26.054688 27.289062 26.054688 Z M 29.457031 26.609375 C 29.007812 26.609375 28.617188 26.363281 28.414062 26 C 28.410156 25.992188 28.40625 25.984375 28.402344 25.976562 C 28.390625 25.949219 28.378906 25.925781 28.367188 25.898438 C 28.363281 25.890625 28.359375 25.886719 28.359375 25.882812 C 28.347656 25.851562 28.335938 25.820312 28.324219 25.789062 C 28.320312 25.78125 28.320312 25.769531 28.316406 25.761719 C 28.308594 25.734375 28.300781 25.707031 28.292969 25.679688 C 28.292969 25.671875 28.292969 25.667969 28.289062 25.660156 C 28.285156 25.625 28.277344 25.59375 28.273438 25.558594 C 28.273438 25.550781 28.273438 25.542969 28.273438 25.53125 C 28.269531 25.496094 28.265625 25.460938 28.265625 25.425781 C 28.265625 24.773438 28.800781 24.246094 29.457031 24.246094 C 30.109375 24.246094 30.644531 24.773438 30.644531 25.425781 C 30.644531 26.078125 30.109375 26.609375 29.457031 26.609375 Z M 29.457031 26.609375 "/>
        <path style=" stroke:none;fill-rule:nonzero;fill:rgb(0.392157%,0.392157%,0.392157%);fill-opacity:1;"
              d="M 19.464844 15.898438 L 19.464844 13.25 L 20.535156 13.25 L 20.535156 15.898438 Z M 19.464844 15.898438 "/>
        <path style=" stroke:none;fill-rule:nonzero;fill:rgb(0.392157%,0.392157%,0.392157%);fill-opacity:1;"
              d="M 16.160156 21.589844 L 16.695312 22.511719 L 14.386719 23.835938 L 13.851562 22.914062 Z M 16.160156 21.589844 "/>
        <path style=" stroke:none;fill-rule:nonzero;fill:rgb(0.392157%,0.392157%,0.392157%);fill-opacity:1;"
              d="M 23.84375 21.589844 L 26.148438 22.914062 L 25.613281 23.835938 L 23.308594 22.511719 Z M 23.84375 21.589844 "/>
        <path style=" stroke:none;fill-rule:nonzero;fill:rgb(0.392157%,0.392157%,0.392157%);fill-opacity:1;"
              d="M 6.570312 28.390625 L 6.03125 27.472656 L 5.554688 27.75 C 5.554688 27.742188 5.550781 27.734375 5.546875 27.730469 L 4.601562 28.234375 C 5.167969 29.277344 5.847656 30.269531 6.617188 31.179688 L 7.4375 30.492188 C 6.949219 29.917969 6.5 29.304688 6.097656 28.667969 Z M 6.570312 28.390625 "/>
        <path style=" stroke:none;fill-rule:nonzero;fill:rgb(0.392157%,0.392157%,0.392157%);fill-opacity:1;"
              d="M 33.0625 13.050781 L 34.445312 12.25 C 34.445312 12.253906 34.445312 12.253906 34.445312 12.253906 L 35.386719 11.75 C 34.820312 10.707031 34.140625 9.714844 33.371094 8.808594 L 32.550781 9.492188 C 33.042969 10.074219 33.496094 10.691406 33.902344 11.332031 L 32.523438 12.132812 Z M 33.0625 13.050781 "/>
        <path style=" stroke:none;fill-rule:nonzero;fill:rgb(0.392157%,0.392157%,0.392157%);fill-opacity:1;"
              d="M 9.828125 7.199219 L 9.164062 6.367188 C 8.226562 7.101562 7.363281 7.9375 6.597656 8.847656 L 7.414062 9.53125 C 8.136719 8.675781 8.949219 7.890625 9.828125 7.199219 Z M 9.828125 7.199219 "/>
        <path style=" stroke:none;fill-rule:nonzero;fill:rgb(0.392157%,0.392157%,0.392157%);fill-opacity:1;"
              d="M 5.496094 12.367188 L 5.972656 12.636719 L 6.503906 11.714844 L 6.027344 11.441406 C 6.03125 11.4375 6.03125 11.433594 6.035156 11.429688 L 5.125 10.871094 C 4.496094 11.878906 3.96875 12.960938 3.5625 14.074219 L 4.570312 14.4375 C 4.828125 13.726562 5.140625 13.035156 5.496094 12.367188 Z M 5.496094 12.367188 "/>
        <path style=" stroke:none;fill-rule:nonzero;fill:rgb(0.392157%,0.392157%,0.392157%);fill-opacity:1;"
              d="M 19.464844 3.699219 L 19.464844 5.285156 L 20.535156 5.285156 L 20.535156 3.15625 L 20.496094 3.15625 L 20.511719 2.632812 C 20.339844 2.628906 20.167969 2.625 20 2.625 C 18.972656 2.625 17.941406 2.714844 16.9375 2.890625 L 17.125 3.9375 C 17.894531 3.804688 18.679688 3.722656 19.464844 3.699219 Z M 19.464844 3.699219 "/>
        <path style=" stroke:none;fill-rule:nonzero;fill:rgb(0.392157%,0.392157%,0.392157%);fill-opacity:1;"
              d="M 3.589844 20 C 3.589844 18.886719 3.703125 17.773438 3.925781 16.691406 L 2.878906 16.476562 C 2.640625 17.628906 2.519531 18.8125 2.519531 20.003906 L 2.519531 20.019531 L 3.589844 20.019531 Z M 3.589844 20 "/>
        <path style=" stroke:none;fill-rule:nonzero;fill:rgb(0.392157%,0.392157%,0.392157%);fill-opacity:1;"
              d="M 37.296875 17.476562 C 37.125 16.296875 36.828125 15.136719 36.417969 14.023438 L 35.414062 14.386719 C 35.796875 15.433594 36.074219 16.523438 36.238281 17.628906 Z M 37.296875 17.476562 "/>
        <path style=" stroke:none;fill-rule:nonzero;fill:rgb(0.392157%,0.392157%,0.392157%);fill-opacity:1;"
              d="M 31.621094 7.019531 C 30.726562 6.230469 29.75 5.527344 28.714844 4.9375 L 28.183594 5.859375 C 29.152344 6.414062 30.070312 7.074219 30.910156 7.816406 Z M 31.621094 7.019531 "/>
        <path style=" stroke:none;fill-rule:nonzero;fill:rgb(0.392157%,0.392157%,0.392157%);fill-opacity:1;"
              d="M 26.457031 3.847656 C 25.34375 3.410156 24.183594 3.085938 23.007812 2.882812 L 22.824219 3.929688 C 23.929688 4.121094 25.019531 4.425781 26.058594 4.835938 Z M 26.457031 3.847656 "/>
        <path style=" stroke:none;fill-rule:nonzero;fill:rgb(0.392157%,0.392157%,0.392157%);fill-opacity:1;"
              d="M 14.839844 4.511719 L 14.503906 3.5 C 13.371094 3.875 12.273438 4.367188 11.238281 4.960938 L 11.773438 5.882812 C 12.746094 5.324219 13.777344 4.859375 14.839844 4.511719 Z M 14.839844 4.511719 "/>
        <path style=" stroke:none;fill-rule:nonzero;fill:rgb(0.392157%,0.392157%,0.392157%);fill-opacity:1;"
              d="M 2.699219 22.507812 C 2.871094 23.683594 3.167969 24.84375 3.574219 25.960938 L 4.582031 25.59375 C 4.195312 24.546875 3.921875 23.457031 3.761719 22.355469 Z M 2.699219 22.507812 "/>
        <path style=" stroke:none;fill-rule:nonzero;fill:rgb(0.392157%,0.392157%,0.392157%);fill-opacity:1;"
              d="M 30.15625 32.8125 L 30.820312 33.644531 C 31.757812 32.910156 32.625 32.078125 33.390625 31.167969 L 32.570312 30.484375 C 31.851562 31.335938 31.039062 32.121094 30.15625 32.8125 Z M 30.15625 32.8125 "/>
        <path style=" stroke:none;fill-rule:nonzero;fill:rgb(0.392157%,0.392157%,0.392157%);fill-opacity:1;"
              d="M 25.140625 35.496094 L 25.476562 36.503906 C 26.609375 36.132812 27.710938 35.644531 28.746094 35.046875 L 28.210938 34.125 C 27.238281 34.683594 26.207031 35.144531 25.140625 35.496094 Z M 25.140625 35.496094 "/>
        <path style=" stroke:none;fill-rule:nonzero;fill:rgb(0.392157%,0.392157%,0.392157%);fill-opacity:1;"
              d="M 37.480469 19.964844 L 36.410156 19.964844 L 36.410156 20 C 36.410156 21.121094 36.296875 22.238281 36.070312 23.324219 L 37.117188 23.542969 C 37.359375 22.382812 37.480469 21.191406 37.480469 19.996094 Z M 37.480469 19.964844 "/>
        <path style=" stroke:none;fill-rule:nonzero;fill:rgb(0.392157%,0.392157%,0.392157%);fill-opacity:1;"
              d="M 34.503906 27.632812 L 33.117188 26.84375 L 32.585938 27.769531 L 33.972656 28.558594 C 33.964844 28.566406 33.960938 28.578125 33.953125 28.585938 L 34.863281 29.148438 C 35.496094 28.136719 36.023438 27.058594 36.429688 25.945312 L 35.425781 25.578125 C 35.167969 26.28125 34.859375 26.96875 34.503906 27.632812 Z M 34.503906 27.632812 "/>
        <path style=" stroke:none;fill-rule:nonzero;fill:rgb(0.392157%,0.392157%,0.392157%);fill-opacity:1;"
              d="M 8.363281 32.96875 C 9.257812 33.757812 10.234375 34.460938 11.265625 35.054688 L 11.800781 34.132812 C 10.832031 33.578125 9.914062 32.917969 9.078125 32.171875 Z M 8.363281 32.96875 "/>
        <path style=" stroke:none;fill-rule:nonzero;fill:rgb(0.392157%,0.392157%,0.392157%);fill-opacity:1;"
              d="M 20.535156 36.300781 L 20.535156 35.757812 L 19.464844 35.757812 L 19.464844 36.84375 L 19.484375 36.84375 L 19.46875 37.367188 C 19.648438 37.371094 19.824219 37.375 20 37.375 C 21.019531 37.375 22.042969 37.285156 23.042969 37.113281 L 22.855469 36.066406 C 22.09375 36.199219 21.316406 36.277344 20.535156 36.300781 Z M 20.535156 36.300781 "/>
        <path style=" stroke:none;fill-rule:nonzero;fill:rgb(0.392157%,0.392157%,0.392157%);fill-opacity:1;"
              d="M 13.527344 36.144531 C 14.636719 36.585938 15.796875 36.910156 16.972656 37.113281 L 17.15625 36.066406 C 16.050781 35.875 14.964844 35.570312 13.921875 35.15625 Z M 13.527344 36.144531 "/>
    </g>
</svg>
